HIERARCHY
ROOT Hips
{
  OFFSET -256.319 73.7216 703.806
  CHANNELS 6 Xposition Yposition Zposition Zrotation Xrotation Yrotation
  JOINT Spine
  {
    OFFSET 0 8 -2.48978e-05
    CHANNELS 6 Xposition Yposition Zposition Zrotation Xrotation Yrotation
    JOINT Spine1
    {
      OFFSET -1.04432e-05 8 0
      CHANNELS 6 Xposition Yposition Zposition Zrotation Xrotation Yrotation
      JOINT Spine2
      {
        OFFSET 1.37142e-05 8 4.96604e-05
        CHANNELS 6 Xposition Yposition Zposition Zrotation Xrotation Yrotation
        JOINT Spine3
        {
          OFFSET 0 8 0
          CHANNELS 6 Xposition Yposition Zposition Zrotation Xrotation Yrotation
          JOINT Neck
          {
            OFFSET 1.15215e-05 17.0002 -0.000130755
            CHANNELS 6 Xposition Yposition Zposition Zrotation Xrotation Yrotation
            JOINT Head
            {
              OFFSET 0 10.8 -3.78314e-05
              CHANNELS 6 Xposition Yposition Zposition Zrotation Xrotation Yrotation
              End Site
              {
                OFFSET 0 20.25 0
              }
            }
          }
          JOINT LeftShoulder
          {
            OFFSET 5.00001 17 0
            CHANNELS 6 Xposition Yposition Zposition Zrotation Xrotation Yrotation
            JOINT LeftShoulder2
            {
              OFFSET 6.45 0 0
              CHANNELS 6 Xposition Yposition Zposition Zrotation Xrotation Yrotation
              JOINT LeftArm
              {
                OFFSET 6.45 0 0
                CHANNELS 6 Xposition Yposition Zposition Zrotation Xrotation Yrotation
                JOINT LeftForeArm
                {
                  OFFSET 0 -32.4 -2.00004
                  CHANNELS 6 Xposition Yposition Zposition Zrotation Xrotation Yrotation
                  JOINT LeftHand
                  {
                    OFFSET -1.06617e-05 -25.65 1.99998
                    CHANNELS 6 Xposition Yposition Zposition Zrotation Xrotation Yrotation
                    JOINT LeftHandThumb1
                    {
                      OFFSET -0.49997 -1.49999 2.65001
                      CHANNELS 6 Xposition Yposition Zposition Zrotation Xrotation Yrotation
                      JOINT LeftHandThumb2
                      {
                        OFFSET 0 -3.79999 3.70002
                        CHANNELS 6 Xposition Yposition Zposition Zrotation Xrotation Yrotation
                        JOINT LeftHandThumb3
                        {
                          OFFSET 0 -2.99999 2.7
                          CHANNELS 6 Xposition Yposition Zposition Zrotation Xrotation Yrotation
                          End Site
                          {
                            OFFSET 0 -2.30002 1.79999
                          }
                        }
                      }
                    }
                    JOINT LeftHandIndex
                    {
                      OFFSET 1.59597e-05 -1.9 1.60001
                      CHANNELS 6 Xposition Yposition Zposition Zrotation Xrotation Yrotation
                      JOINT LeftHandIndex1
                      {
                        OFFSET 1.43343e-05 -8.29998 1.90001
                        CHANNELS 6 Xposition Yposition Zposition Zrotation Xrotation Yrotation
                        JOINT LeftHandIndex2
                        {
                          OFFSET 4.73905e-05 -4.50001 0
                          CHANNELS 6 Xposition Yposition Zposition Zrotation Xrotation Yrotation
                          JOINT LeftHandIndex3
                          {
                            OFFSET 0 -3.40003 -1.26661e-05
                            CHANNELS 6 Xposition Yposition Zposition Zrotation Xrotation Yrotation
                            End Site
                            {
                              OFFSET 0 -2.6 0
                            }
                          }
                        }
                      }
                    }
                    JOINT LeftHandMiddle
                    {
                      OFFSET -0.249951 -2.19997 0.400023
                      CHANNELS 6 Xposition Yposition Zposition Zrotation Xrotation Yrotation
                      JOINT LeftHandMiddle1
                      {
                        OFFSET -3.69971e-05 -8.30004 0.99999
                        CHANNELS 6 Xposition Yposition Zposition Zrotation Xrotation Yrotation
                        JOINT LeftHandMiddle2
                        {
                          OFFSET 2.24188e-05 -4.64997 0
                          CHANNELS 6 Xposition Yposition Zposition Zrotation Xrotation Yrotation
                          JOINT LeftHandMiddle3
                          {
                            OFFSET 0 -3.30002 0
                            CHANNELS 6 Xposition Yposition Zposition Zrotation Xrotation Yrotation
                            End Site
                            {
                              OFFSET -4.84866e-05 -2.7 0
                            }
                          }
                        }
                      }
                    }
                    JOINT LeftHandRing
                    {
                      OFFSET -0.49998 -2.15001 -0.799976
                      CHANNELS 6 Xposition Yposition Zposition Zrotation Xrotation Yrotation
                      JOINT LeftHandRing1
                      {
                        OFFSET 0 -7.75 -0.200016
                        CHANNELS 6 Xposition Yposition Zposition Zrotation Xrotation Yrotation
                        JOINT LeftHandRing2
                        {
                          OFFSET 0 -3.8 1.83814e-05
                          CHANNELS 6 Xposition Yposition Zposition Zrotation Xrotation Yrotation
                          JOINT LeftHandRing3
                          {
                            OFFSET -2.07163e-05 -3.39998 -2.69478e-05
                            CHANNELS 6 Xposition Yposition Zposition Zrotation Xrotation Yrotation
                            End Site
                            {
                              OFFSET 4.52777e-05 -2.59999 1.2825e-05
                            }
                          }
                        }
                      }
                    }
                    JOINT LeftHandPinky
                    {
                      OFFSET -0.749984 -1.75001 -1.84998
                      CHANNELS 6 Xposition Yposition Zposition Zrotation Xrotation Yrotation
                      JOINT LeftHandPinky1
                      {
                        OFFSET -1.01868e-05 -7.15 -0.999997
                        CHANNELS 6 Xposition Yposition Zposition Zrotation Xrotation Yrotation
                        JOINT LeftHandPinky2
                        {
                          OFFSET 0 -2.99998 -1.1881e-05
                          CHANNELS 6 Xposition Yposition Zposition Zrotation Xrotation Yrotation
                          JOINT LeftHandPinky3
                          {
                            OFFSET 2.54022e-05 -2.35001 0
                            CHANNELS 6 Xposition Yposition Zposition Zrotation Xrotation Yrotation
                            End Site
                            {
                              OFFSET 0 -2.09999 0
                            }
                          }
                        }
                      }
                    }
                  }
                }
              }
            }
          }
          JOINT RightShoulder
          {
            OFFSET -5.00002 17 -1.65143e-05
            CHANNELS 6 Xposition Yposition Zposition Zrotation Xrotation Yrotation
            JOINT RightShoulder2
            {
              OFFSET -6.45 0 0
              CHANNELS 6 Xposition Yposition Zposition Zrotation Xrotation Yrotation
              JOINT RightArm
              {
                OFFSET -6.45 0 0
                CHANNELS 6 Xposition Yposition Zposition Zrotation Xrotation Yrotation
                JOINT RightForeArm
                {
                  OFFSET -2.95779e-05 -32.4 -2.00002
                  CHANNELS 6 Xposition Yposition Zposition Zrotation Xrotation Yrotation
                  JOINT RightHand
                  {
                    OFFSET -1.04762e-05 -25.65 2
                    CHANNELS 6 Xposition Yposition Zposition Zrotation Xrotation Yrotation
                    JOINT RightHandThumb1
                    {
                      OFFSET 0.49998 -1.50001 2.65001
                      CHANNELS 6 Xposition Yposition Zposition Zrotation Xrotation Yrotation
                      JOINT RightHandThumb2
                      {
                        OFFSET 2.47037e-05 -3.80002 3.69998
                        CHANNELS 6 Xposition Yposition Zposition Zrotation Xrotation Yrotation
                        JOINT RightHandThumb3
                        {
                          OFFSET 0 -3.00001 2.69998
                          CHANNELS 6 Xposition Yposition Zposition Zrotation Xrotation Yrotation
                          End Site
                          {
                            OFFSET 0 -2.30001 1.79999
                          }
                        }
                      }
                    }
                    JOINT RightHandIndex
                    {
                      OFFSET -1.0231e-05 -1.9 1.6
                      CHANNELS 6 Xposition Yposition Zposition Zrotation Xrotation Yrotation
                      JOINT RightHandIndex1
                      {
                        OFFSET 2.52626e-05 -8.30002 1.89991
                        CHANNELS 6 Xposition Yposition Zposition Zrotation Xrotation Yrotation
                        JOINT RightHandIndex2
                        {
                          OFFSET -1.26514e-05 -4.50001 -1.15982e-05
                          CHANNELS 6 Xposition Yposition Zposition Zrotation Xrotation Yrotation
                          JOINT RightHandIndex3
                          {
                            OFFSET 5.905e-05 -3.39999 0
                            CHANNELS 6 Xposition Yposition Zposition Zrotation Xrotation Yrotation
                            End Site
                            {
                              OFFSET 0 -2.59999 1.24745e-05
                            }
                          }
                        }
                      }
                    }
                    JOINT RightHandMiddle
                    {
                      OFFSET 0.250005 -2.20003 0.39996
                      CHANNELS 6 Xposition Yposition Zposition Zrotation Xrotation Yrotation
                      JOINT RightHandMiddle1
                      {
                        OFFSET -1.91297e-05 -8.29998 1.00004
                        CHANNELS 6 Xposition Yposition Zposition Zrotation Xrotation Yrotation
                        JOINT RightHandMiddle2
                        {
                          OFFSET -5.79348e-05 -4.65 0
                          CHANNELS 6 Xposition Yposition Zposition Zrotation Xrotation Yrotation
                          JOINT RightHandMiddle3
                          {
                            OFFSET 1.81383e-05 -3.3 0
                            CHANNELS 6 Xposition Yposition Zposition Zrotation Xrotation Yrotation
                            End Site
                            {
                              OFFSET 2.03477e-05 -2.69999 0
                            }
                          }
                        }
                      }
                    }
                    JOINT RightHandRing
                    {
                      OFFSET 0.5 -2.15002 -0.800018
                      CHANNELS 6 Xposition Yposition Zposition Zrotation Xrotation Yrotation
                      JOINT RightHandRing1
                      {
                        OFFSET 0 -7.75 -0.199999
                        CHANNELS 6 Xposition Yposition Zposition Zrotation Xrotation Yrotation
                        JOINT RightHandRing2
                        {
                          OFFSET 0 -3.80002 0
                          CHANNELS 6 Xposition Yposition Zposition Zrotation Xrotation Yrotation
                          JOINT RightHandRing3
                          {
                            OFFSET 0 -3.39996 2.2131e-05
                            CHANNELS 6 Xposition Yposition Zposition Zrotation Xrotation Yrotation
                            End Site
                            {
                              OFFSET 0 -2.6 0
                            }
                          }
                        }
                      }
                    }
                    JOINT RightHandPinky
                    {
                      OFFSET 0.749984 -1.75001 -1.85
                      CHANNELS 6 Xposition Yposition Zposition Zrotation Xrotation Yrotation
                      JOINT RightHandPinky1
                      {
                        OFFSET 1.71334e-05 -7.15 -1.00002
                        CHANNELS 6 Xposition Yposition Zposition Zrotation Xrotation Yrotation
                        JOINT RightHandPinky2
                        {
                          OFFSET 0 -3.00001 0
                          CHANNELS 6 Xposition Yposition Zposition Zrotation Xrotation Yrotation
                          JOINT RightHandPinky3
                          {
                            OFFSET 0 -2.35002 -1.21269e-05
                            CHANNELS 6 Xposition Yposition Zposition Zrotation Xrotation Yrotation
                            End Site
                            {
                              OFFSET 0 -2.09994 -1.4741e-05
                            }
                          }
                        }
                      }
                    }
                  }
                }
              }
            }
          }
        }
      }
    }
  }
  JOINT LeftUpLeg
  {
    OFFSET 8.00001 0 -2.57052e-05
    CHANNELS 6 Xposition Yposition Zposition Zrotation Xrotation Yrotation
    JOINT LeftLeg
    {
      OFFSET -3.75481e-05 -45 -0.999989
      CHANNELS 6 Xposition Yposition Zposition Zrotation Xrotation Yrotation
      JOINT LeftFoot
      {
        OFFSET 0 -41 -1.99999
        CHANNELS 6 Xposition Yposition Zposition Zrotation Xrotation Yrotation
        JOINT LeftToeBase
        {
          OFFSET -1.60171e-05 -7.5 12.5
          CHANNELS 6 Xposition Yposition Zposition Zrotation Xrotation Yrotation
          JOINT LeftFootToe
          {
            OFFSET 0 0 4
            CHANNELS 6 Xposition Yposition Zposition Zrotation Xrotation Yrotation
            End Site
            {
              OFFSET 0 0 0
            }
          }
        }
      }
    }
  }
  JOINT RightUpLeg
  {
    OFFSET -8 0 2.72962e-05
    CHANNELS 6 Xposition Yposition Zposition Zrotation Xrotation Yrotation
    JOINT RightLeg
    {
      OFFSET 0 -44.9999 -1.00005
      CHANNELS 6 Xposition Yposition Zposition Zrotation Xrotation Yrotation
      JOINT RightFoot
      {
        OFFSET 0 -41.0001 -1.99999
        CHANNELS 6 Xposition Yposition Zposition Zrotation Xrotation Yrotation
        JOINT RightToeBase
        {
          OFFSET -2.13174e-05 -7.5 12.5
          CHANNELS 6 Xposition Yposition Zposition Zrotation Xrotation Yrotation
          JOINT RightFootToe
          {
            OFFSET 0 0 4
            CHANNELS 6 Xposition Yposition Zposition Zrotation Xrotation Yrotation
            End Site
            {
              OFFSET 0 0 0
            }
          }
        }
      }
    }
  }
}
MOTION
Frames:	3
Frame Time:	0.0111111
-256.319 73.7216 703.806 -1.7122 5.38183 -173.852 -5.68434e-14 8 0 4.29695 11.4571 -11.4742 2.84217e-14 8 0 1.02154 6.53098 -3.10886 0 8 -1.13687e-13 0.466065 3.27574 -1.53894 2.84217e-14 8 0 0.465023 3.26916 -1.53587 2.84217e-14 17 0 -0.246693 0.0198927 -5.63482 0 10.8 1.13687e-13 -0.572267 0.0763196 -13.1721 5 17 0 0.841955 -3.52869 -6.22495 6.45 1.42109e-14 0 -0.2482 -0.203442 3.33617 6.45 -2.84217e-14 0 69.9183 -15.3625 37.883 0 -32.4 -2 -60.4565 -81.2811 -66.1786 0 -25.65 2 27.3887 -5.61275 -34.0235 -0.5 -1.5 2.65 -15.2206 -9.53943 -6.52681 -5.68434e-14 -3.8 3.7 -0.674364 46.2742 -0.0169778 0 -3 2.7 -0.0693487 2.70137 0.0857881 0 -1.9 1.6 -1.27222e-14 7.95139e-16 1.19271e-15 -5.68434e-14 -8.3 1.9 -17.153 7.20127 1.39148 0 -4.5 0 -54.0402 -0.0353986 -0.0172563 -2.84217e-14 -3.4 0 -37.6013 -0.0132553 -0.0270509 -0.25 -2.2 0.4 -1.27222e-14 7.95139e-16 1.19271e-15 -5.68434e-14 -8.3 1 -13.2694 4.36547 1.19925 5.68434e-14 -4.65 5.68434e-14 -41.9201 0.0109759 0.000679218 2.84217e-14 -3.3 5.68434e-14 -29.2644 -6.57472e-05 -0.00988957 -0.5 -2.15 -0.8 -1.27222e-14 7.95139e-16 1.19271e-15 0 -7.75 -0.2 -27.9485 24.9281 8.58591 5.68434e-14 -3.8 -1.13687e-13 -71.8329 0.00170649 0.00455657 -5.68434e-14 -3.4 0 -54.0634 0.00888164 -0.0160374 -0.75 -1.75 -1.85 -1.27222e-14 7.95139e-16 1.19271e-15 0 -7.15 -1 -44.229 27.6903 15.1921 0 -3 1.13687e-13 -36.7874 -0.0502873 -0.0314201 -5.68434e-14 -2.35 -1.13687e-13 -26.1434 -0.00530085 -0.0302465 -5 17 1.13687e-13 13.0397 -8.1119 0.174671 -6.45 -1.42109e-14 0 -2.69923 1.13777 -5.62958 -6.45 1.42109e-14 0 -21.143 -9.41896 -37.928 1.13687e-13 -32.4 -2 -49.5096 -47.965 -75.5799 0 -25.65 2 39.1744 -18.9048 -40.1365 0.5 -1.5 2.65 4.20157 5.88417 -4.37534 2.84217e-14 -3.8 3.7 0.350727 -2.23805 -0.166889 -2.84217e-14 -3 2.7 -0.00242418 0.0750728 -0.013827 0 -1.9 1.6 -1.59028e-15 1.27222e-14 3.18055e-15 0 -8.3 1.9 0.114885 -2.3645 -0.0181704 0 -4.5 -1.13687e-13 4.30739 0.074759 -0.0735191 8.52651e-14 -3.4 0 1.14458 0.0657197 -0.0638957 0.25 -2.2 0.4 -1.59028e-15 1.27222e-14 3.18055e-15 5.68434e-14 -8.3 1 3.4119 6.67539 -0.674526 2.84217e-14 -4.65 0 1.85832 0.00380949 -0.00654709 2.84217e-14 -3.3 0 4.07506e-05 -0.00914801 0.00432093 0.5 -2.15 -0.8 -1.59028e-15 1.27222e-14 3.18055e-15 -5.68434e-14 -7.75 -0.2 9.26338 18.5651 -2.78435 0 -3.8 -1.13687e-13 0.0142261 -0.0120417 -0.0112425 0 -3.4 0 2.13236e-05 -0.00605462 -0.012565 0.75 -1.75 -1.85 -1.59028e-15 1.27222e-14 3.18055e-15 -2.84217e-14 -7.15 -1 14.1672 27.8873 -5.37947 -1.42109e-14 -3 0 1.2521 0.0536244 -0.00717115 -1.42109e-14 -2.35 0 1.16809 0.0496242 -0.00826555 8 0 -1.13687e-13 18.6854 -47.0422 30.6413 -1.13687e-13 -45 -1 -1.47509 39.1975 -9.0983 0 -41 -2 3.34475 15.7547 3.78569 0 -7.5 12.5 -1.6575e-08 4.29319e-05 9.40369e-07 0 1.77636e-15 4 -11.1298 -10.5608 -12.4959 -8 0 -1.13687e-13 9.85217 -54.7264 9.59367 0 -45 -1 -8.13757 79.5759 10.0717 -5.68434e-14 -41 -2 -6.72761 -0.567974 22.6754 0 -7.5 12.5 8.65226e-07 1.8612e-06 1.87978e-08 0 -2.84217e-14 4 5.88079 0.790269 15.4233 
-256.484 73.721 703.824 -1.63755 5.46905 -173.948 0 8 0 4.12177 11.3704 -11.5461 -5.68434e-14 8 0 0.992936 6.49183 -3.1131 0 8 1.13687e-13 0.451993 3.25592 -1.5419 0 8 0 0.44878 3.24873 -1.5382 -2.84217e-14 17 -1.13687e-13 -0.286574 0.0508554 -5.51469 5.68434e-14 10.8 0 -0.660173 0.153 -12.89 5 17 -1.13687e-13 0.944303 -3.44189 -6.19817 6.45 -1.42109e-14 0 -0.224372 -0.207877 3.3518 6.45 -2.84217e-14 0 70.1066 -15.9439 37.7468 -5.68434e-14 -32.4 -2 -56.1218 -80.8886 -61.7484 0 -25.65 2 26.9067 -5.05877 -34.2953 -0.5 -1.5 2.65 -13.4372 -11.1644 -5.73507 -5.68434e-14 -3.8 3.7 -0.591463 46.909 0.0122558 5.68434e-14 -3 2.7 -0.0710254 3.12376 0.0781575 -5.68434e-14 -1.9 1.6 -1.27222e-14 2.5842e-15 3.97569e-16 -1.13687e-13 -8.3 1.9 -18.4361 7.06362 1.47343 0 -4.5 5.68434e-14 -51.022 -0.0278136 -0.0326172 -2.84217e-14 -3.4 0 -35.5253 -0.00445392 -0.0311738 -0.25 -2.2 0.4 -1.27222e-14 2.5842e-15 3.97569e-16 0 -8.3 1 -13.6699 4.044 1.1628 5.68434e-14 -4.65 0 -41.8144 0.0109759 -0.00332751 -2.84217e-14 -3.3 -5.68434e-14 -29.1995 -6.57472e-05 -0.00988957 -0.5 -2.15 -0.8 -1.27222e-14 2.5842e-15 3.97569e-16 0 -7.75 -0.2 -27.7196 24.7016 8.42327 0 -3.8 -5.68434e-14 -71.4347 0.00170649 0.00455657 0 -3.4 0 -53.5928 0.00888164 -0.0160374 -0.75 -1.75 -1.85 -1.27222e-14 2.5842e-15 3.97569e-16 5.68434e-14 -7.15 -1 -43.7632 27.5545 14.9249 -2.84217e-14 -3 0 -35.4509 -0.0369231 -0.0254841 -2.84217e-14 -2.35 0 -25.3411 -0.00530085 -0.023401 -5 17 0 13.0714 -8.12455 0.158633 -6.45 0 1.13687e-13 -2.72948 1.12857 -5.6256 -6.45 2.84217e-14 0 -20.8949 -10.0339 -36.7586 0 -32.4 -2 -49.2514 -47.6532 -75.3656 0 -25.65 2 38.9086 -18.3836 -40.4537 0.5 -1.5 2.65 3.58398 5.68721 -4.33008 0 -3.8 3.7 0.337943 -2.23805 -0.161256 0 -3 2.7 -0.00242682 0.0641463 -0.013827 5.68434e-14 -1.9 1.6 -3.18055e-15 3.18055e-15 -0 0 -8.3 1.9 0.169288 -3.08461 -0.0088785 -2.84217e-14 -4.5 0 3.82564 0.0470433 -0.0462872 2.84217e-14 -3.4 1.13687e-13 0.720648 0.041356 -0.0402302 0.25 -2.2 0.4 -3.18055e-15 3.18055e-15 -0 2.84217e-14 -8.3 1 3.36838 6.17563 -0.650464 2.84217e-14 -4.65 0 1.85832 0.00380949 -0.00654709 0 -3.3 5.68434e-14 4.07506e-05 -0.00914801 0.00432093 0.5 -2.15 -0.8 -3.18055e-15 3.18055e-15 -0 -2.84217e-14 -7.75 -0.2 9.07334 18.3873 -2.73273 -2.84217e-14 -3.8 0 0.0142261 -0.0120417 -0.0112425 -2.84217e-14 -3.4 0 2.13236e-05 -0.00605462 -0.012565 0.75 -1.75 -1.85 -3.18055e-15 3.18055e-15 -0 0 -7.15 -1 13.8579 27.8754 -5.29221 2.84217e-14 -3 5.68434e-14 0.78943 0.0336671 -0.000841537 0 -2.35 0 0.735459 0.0311718 -0.00156132 8 0 1.13687e-13 18.7091 -47.0141 30.6819 0 -45 -1 -1.45729 39.3338 -9.18481 0 -41 -2 3.44045 15.7009 4.52535 -5.68434e-14 -7.5 12.5 -1.6575e-08 4.29319e-05 9.40369e-07 0 1.77636e-15 4 -11.2248 -10.5383 -12.6366 -8 0 0 9.67689 -54.5989 9.44084 0 -45 -1 -8.0919 79.5292 10.0268 0 -41 -2 -6.73014 -0.586507 22.6604 0 -7.5 12.5 8.65226e-07 1.8612e-06 1.87977e-08 1.13687e-13 0 4 5.94806 0.791121 15.7145 
-256.649 73.7204 703.842 -1.56259 5.55628 -174.045 0 8 1.13687e-13 3.94637 11.2838 -11.618 2.84217e-14 8 1.13687e-13 0.964327 6.45268 -3.11734 2.84217e-14 8 0 0.437919 3.2361 -1.54486 0 8 0 0.436345 3.22937 -1.54033 0 17 1.13687e-13 -0.326585 0.0818304 -5.39456 -2.84217e-14 10.8 -1.13687e-13 -0.748834 0.22985 -12.6079 5 17 1.13687e-13 1.04657 -3.35507 -6.1714 6.45 0 0 -0.209519 -0.212068 3.36904 6.45 -1.42109e-14 0 70.2922 -16.5278 37.6143 5.68434e-14 -32.4 -2 -52.1767 -80.446 -57.7085 5.68434e-14 -25.65 2 26.4299 -4.50834 -34.5704 -0.5 -1.5 2.65 -11.6081 -12.7916 -4.93906 -5.68434e-14 -3.8 3.7 -0.509522 47.5438 0.0421917 5.68434e-14 -3 2.7 -0.0725895 3.54614 0.0705249 0 -1.9 1.6 -1.27222e-14 -3.18055e-15 -2.18663e-15 0 -8.3 1.9 -19.7188 6.92597 1.55533 -5.68434e-14 -4.5 0 -48.0039 -0.0202287 -0.047978 0 -3.4 0 -33.4494 0.00434745 -0.0352967 -0.25 -2.2 0.4 -1.27222e-14 -3.18055e-15 -2.18663e-15 -5.68434e-14 -8.3 1 -14.0708 3.72253 1.12642 5.68434e-14 -4.65 5.68434e-14 -41.7086 0.0109759 -0.00733424 1.42109e-14 -3.3 5.68434e-14 -29.1346 -6.57472e-05 -0.00988957 -0.5 -2.15 -0.8 -1.27222e-14 -3.18055e-15 -2.18663e-15 5.68434e-14 -7.75 -0.2 -27.4921 24.4747 8.26134 0 -3.8 -5.68434e-14 -71.0364 0.00170649 0.00455657 5.68434e-14 -3.4 0 -53.1221 0.00888164 -0.0160374 -0.75 -1.75 -1.85 -1.27222e-14 -3.18055e-15 -2.18663e-15 0 -7.15 -1 -43.299 27.4178 14.6584 0 -3 0 -34.1144 -0.0235589 -0.0195481 -2.84217e-14 -2.35 0 -24.5387 -0.00530085 -0.0165554 -5 17 0 13.1032 -8.1372 0.142594 -6.45 0 0 -2.76178 1.12179 -5.62322 -6.45 2.84217e-14 1.13687e-13 -20.6245 -10.6588 -35.5895 0 -32.4 -2 -48.997 -47.3409 -75.1568 1.13687e-13 -25.65 2 38.648 -17.866 -40.7727 0.5 -1.5 2.65 2.96671 5.49023 -4.2849 2.84217e-14 -3.8 3.7 0.32516 -2.23805 -0.155622 0 -3 2.7 -0.00242945 0.0532198 -0.013827 2.84217e-14 -1.9 1.6 1.41245e-30 -6.36111e-15 1.27222e-14 2.84217e-14 -8.3 1.9 0.223924 -3.80473 0.00042459 2.84217e-14 -4.5 0 3.34393 0.0193275 -0.0190554 2.84217e-14 -3.4 0 0.296738 0.0169923 -0.0165648 0.25 -2.2 0.4 1.41245e-30 -6.36111e-15 1.27222e-14 0 -8.3 1 3.32528 5.67586 -0.626497 0 -4.65 0 1.85832 0.00380949 -0.00654709 2.84217e-14 -3.3 0 4.07506e-05 -0.00914801 0.00432093 0.5 -2.15 -0.8 1.41245e-30 -6.36111e-15 1.27222e-14 -2.84217e-14 -7.75 -0.2 8.88364 18.2094 -2.68124 -5.68434e-14 -3.8 -5.68434e-14 0.0142261 -0.0120417 -0.0112425 0 -3.4 -5.68434e-14 2.13236e-05 -0.00605462 -0.012565 0.75 -1.75 -1.85 1.41245e-30 -6.36111e-15 1.27222e-14 -2.84217e-14 -7.15 -1 13.5487 27.8634 -5.20496 1.42109e-14 -3 0 0.326765 0.0137098 0.00548807 -1.42109e-14 -2.35 0 0.302831 0.0127194 0.0051429 8 0 1.13687e-13 18.7327 -46.986 30.7223 0 -45 -1 -1.43896 39.47 -9.2717 -1.13687e-13 -41 -2 3.53743 15.6447 5.26461 0 -7.5 12.5 -1.6575e-08 4.29319e-05 9.40369e-07 -5.68434e-14 1.77636e-15 4 -11.2478 -10.5791 -12.4067 -8 0 0 9.5028 -54.4712 9.28902 5.68434e-14 -45 -1 -8.04662 79.4824 9.98229 5.68434e-14 -41 -2 -6.73268 -0.605044 22.6454 0 -7.5 12.5 8.65226e-07 1.8612e-06 1.87978e-08 0 0 4 5.99327 0.791265 16.027 
